<?xml version="1.0" encoding="UTF-8"?>
<svg id="_레이어_2" data-name="레이어 2" xmlns="http://www.w3.org/2000/svg" viewBox="0 0 114.8 33.82">
  <defs>
    <style>
      .cls-1 {
        fill: #017ab6;
      }

      .cls-1, .cls-2, .cls-3 {
        stroke-width: 0px;
      }

      .cls-2 {
        fill: #89b63f;
      }

      .cls-3 {
        fill: #4c4c4c;
      }
    </style>
  </defs>
  <g id="CI_2.0" data-name="CI 2.0">
    <g id="white_kor">
      <g id="_2" data-name="2">
        <path class="cls-2" d="M8.17,15.45c-.83-.83-.83-2.19,0-3.03L17.71,2.89l-2.26-2.26c-.83-.83-2.19-.83-3.03,0L.62,12.42c-.83.83-.83,2.19,0,3.03l3.23,3.23c1.23-1.08,2.73-2.09,4.58-2.97l-.26-.26Z"/>
        <path class="cls-2" d="M10.23,17.51c-1.59,1.01-3,2.17-4.07,3.47l2.3,2.3s.78-2.13,3.05-4.5l-1.28-1.28Z"/>
        <path class="cls-2" d="M10.75,25.58l1.67,1.67c.83.83,2.19.83,3.03,0l2.26-2.26-4.26-4.26c-1.87,2.61-2.7,4.85-2.7,4.85Z"/>
        <path class="cls-1" d="M34.8,12.42l-5.34-5.34c.12.27.19.56.19.87,0,1.18-.96,2.14-2.14,2.14s-2.14-.96-2.14-2.14.96-2.14,2.14-2.14c.31,0,.61.07.87.19L23,.62c-.83-.83-2.19-.83-3.03,0l-2.26,2.26-9.54,9.54c-.83.83-.83,2.19,0,3.03l.26.26c4.26-2.04,10.32-3.41,18.97-3.36.23.01.25.34,0,.36-6.94.24-11.41,4.47-13.95,8.02l4.26,4.26,2.26,2.26c.83.83,2.19.83,3.03,0l11.8-11.8c.83-.83.83-2.19,0-3.03Z"/>
        <path class="cls-1" d="M22.22,13.09c-3.76.59-8.35,2.1-11.99,4.41l1.28,1.28c2.1-2.19,5.49-4.59,10.71-5.69Z"/>
      </g>
      <path class="cls-3" d="M97.85,24.21h16.95v2.09h-16.95v-2.09ZM112.65,21.74h-12.64v-8.97h12.56v2.09h-10.22v4.8h10.3v2.09Z"/>
      <path class="cls-3" d="M60.45,26.29h16.95v-2.08h-7.45v-2.59h5.82v-2.08h-3.09v-4.67h3.09v-2.08h-13.7v2.08h2.79v4.67h-2.79v2.08h5.8v2.59h-7.43v2.08ZM66.94,14.86h3.65v4.67h-3.65v-4.67Z"/>
      <g>
        <polygon class="cls-3" points="86.57 25.8 84.21 25.8 84.21 33.82 95.93 33.82 95.93 31.73 86.57 31.73 86.57 25.8"/>
        <polygon class="cls-3" points="89.37 23.96 89.37 26.29 91.63 26.29 91.63 19.42 93.64 19.42 93.64 26.29 95.93 26.29 95.93 12.78 93.64 12.78 93.64 17.34 91.63 17.34 91.63 12.78 89.37 12.78 89.37 21.87 89.37 23.96"/>
      </g>
      <polyline class="cls-1" points="89.37 21.87 81.31 21.87 81.31 19.42 87.35 19.42 87.35 12.78 79 12.78 79 14.86 85.06 14.86 85.06 17.36 79 17.36 79 23.96 89.37 23.96"/>
      <polygon class="cls-3" points="45.58 18.51 55.39 18.51 55.39 20.37 45.58 20.37 45.58 26.29 57.71 26.29 57.71 24.23 47.89 24.23 47.89 22.38 57.71 22.38 57.71 16.45 45.58 16.45 45.58 18.51"/>
      <path class="cls-3" d="M52.85,12.76v-1.68c-.52.13-1.16.12-1.16.12-.54.02-1.17-.12-1.17-.12v1.68h-7.28v2.09h16.82v-2.09h-7.2Z"/>
      <path class="cls-1" d="M52.85,11.12c2.39-.47,4.18-2.37,4.18-4.64,0-2.63-2.39-4.76-5.34-4.76s-5.34,2.13-5.34,4.76c0,2.27,1.78,4.16,4.17,4.64,0,0,.63.15,1.17.12,0,0,.64,0,1.16-.12ZM48.59,6.5c0-1.44,1.39-2.6,3.1-2.6s3.1,1.17,3.1,2.6-1.39,2.6-3.1,2.6-3.1-1.17-3.1-2.6Z"/>
    </g>
  </g>
</svg>